<svg width="31" height="32" viewBox="0 0 31 32" fill="none" xmlns="http://www.w3.org/2000/svg">
<mask id="path-1-inside-1_403_393" fill="white">
<path d="M28.2699 28.4656H2.81703C2.29525 28.4656 1.86255 28.0329 1.86255 27.5111C1.86255 26.9893 2.29525 26.5566 2.81703 26.5566H28.2699C28.7916 26.5566 29.2243 26.9893 29.2243 27.5111C29.2243 28.0329 28.7916 28.4656 28.2699 28.4656Z"/>
</mask>
<path d="M28.2699 28.4656H2.81703C2.29525 28.4656 1.86255 28.0329 1.86255 27.5111C1.86255 26.9893 2.29525 26.5566 2.81703 26.5566H28.2699C28.7916 26.5566 29.2243 26.9893 29.2243 27.5111C29.2243 28.0329 28.7916 28.4656 28.2699 28.4656Z" fill="white"/>
<path d="M28.2699 28.4656V26.5566H2.81703V28.4656V30.3746H28.2699V28.4656ZM2.81703 28.4656V26.5566C3.34954 26.5566 3.77151 26.9786 3.77151 27.5111H1.86255H-0.0464134C-0.0464134 29.0872 1.24096 30.3746 2.81703 30.3746V28.4656ZM1.86255 27.5111H3.77151C3.77151 28.0436 3.34954 28.4656 2.81703 28.4656V26.5566V24.6477C1.24096 24.6477 -0.0464134 25.935 -0.0464134 27.5111H1.86255ZM2.81703 26.5566V28.4656H28.2699V26.5566V24.6477H2.81703V26.5566ZM28.2699 26.5566V28.4656C27.7374 28.4656 27.3154 28.0436 27.3154 27.5111H29.2243H31.1333C31.1333 25.935 29.8459 24.6477 28.2699 24.6477V26.5566ZM29.2243 27.5111H27.3154C27.3154 26.9786 27.7374 26.5566 28.2699 26.5566V28.4656V30.3746C29.8459 30.3746 31.1333 29.0872 31.1333 27.5111H29.2243Z" fill="white" mask="url(#path-1-inside-1_403_393)"/>
<path d="M14.9709 3.9668H16.1165C16.7437 3.96688 17.0101 4.16334 17.1516 4.3457C17.327 4.57192 17.4523 4.96429 17.4524 5.55762V27.5107H13.634V5.55762C13.6341 4.96443 13.7594 4.57194 13.9348 4.3457C14.0763 4.1633 14.3434 3.9668 14.9709 3.9668Z" fill="white" stroke="white" stroke-width="1.90896"/>
<path opacity="0.4" d="M6.12573 11.6025H7.14429C7.63203 11.6026 7.82966 11.7655 7.94897 11.9385C8.10967 12.1717 8.2253 12.5824 8.22534 13.1934V27.5107H5.0437V13.1934C5.04375 12.5823 5.16031 12.1717 5.32104 11.9385C5.44038 11.7654 5.6378 11.6026 6.12573 11.6025Z" fill="white" stroke="white" stroke-width="1.90896"/>
<path opacity="0.4" d="M21.9066 19.557V28.4655H26.9972V19.557C26.9972 18.1571 26.4881 17.0117 24.961 17.0117H23.9428C22.4157 17.0117 21.9066 18.1571 21.9066 19.557Z" fill="white"/>
</svg>
